<svg xmlns="http://www.w3.org/2000/svg" width="173" height="27" viewBox="0 0 173 27" fill="none"><path d="M0.32 26V0.799998H3.596V24.02H16.592V26H0.32ZM35.9803 18.584H23.5603L20.3923 26H18.7363L29.3923 0.799998H31.1923L42.9283 26H39.4363L35.9803 18.584ZM35.2243 16.964L29.5723 4.832H29.4283L24.2443 16.964H35.2243ZM63.3774 0.799998L74.9334 22.436H75.0774L86.7414 0.799998H89.2254V26H85.9494V5.588H85.8054L74.4294 26.432H73.7814L62.6574 5.444H62.5134V26H60.9294V0.799998H63.3774ZM95.3586 13.4C95.3586 12.032 95.6106 10.58 96.1146 9.044C96.6426 7.508 97.4586 6.104 98.5626 4.832C99.6666 3.536 101.071 2.468 102.775 1.628C104.479 0.787999 106.519 0.368 108.895 0.368C111.295 0.368 113.371 0.799999 115.123 1.664C116.899 2.504 118.363 3.572 119.515 4.868C120.667 6.164 121.519 7.58 122.071 9.116C122.623 10.628 122.899 12.056 122.899 13.4C122.899 14.288 122.767 15.224 122.503 16.208C122.263 17.192 121.891 18.176 121.387 19.16C120.907 20.12 120.283 21.044 119.515 21.932C118.747 22.796 117.835 23.564 116.779 24.236C115.747 24.908 114.571 25.448 113.251 25.856C111.955 26.24 110.503 26.432 108.895 26.432C106.519 26.432 104.479 26.012 102.775 25.172C101.071 24.308 99.6666 23.228 98.5626 21.932C97.4586 20.636 96.6426 19.232 96.1146 17.72C95.6106 16.184 95.3586 14.744 95.3586 13.4ZM98.8866 13.4C98.8866 15.08 99.1386 16.628 99.6426 18.044C100.171 19.436 100.879 20.636 101.767 21.644C102.679 22.652 103.747 23.444 104.971 24.02C106.195 24.572 107.527 24.848 108.967 24.848C110.383 24.848 111.715 24.572 112.963 24.02C114.235 23.444 115.339 22.652 116.275 21.644C117.235 20.636 117.991 19.436 118.543 18.044C119.095 16.628 119.371 15.08 119.371 13.4C119.371 11.72 119.095 10.184 118.543 8.792C117.991 7.376 117.235 6.164 116.275 5.156C115.339 4.148 114.235 3.368 112.963 2.816C111.715 2.24 110.383 1.952 108.967 1.952C107.527 1.952 106.195 2.24 104.971 2.816C103.747 3.368 102.679 4.148 101.767 5.156C100.879 6.164 100.171 7.376 99.6426 8.792C99.1386 10.184 98.8866 11.72 98.8866 13.4ZM129.387 26V0.799998H137.667C139.659 0.799998 141.483 1.124 143.139 1.772C144.795 2.396 146.211 3.272 147.387 4.4C148.587 5.504 149.511 6.824 150.159 8.36C150.831 9.896 151.167 11.552 151.167 13.328C151.167 15.176 150.819 16.88 150.123 18.44C149.451 19.976 148.515 21.308 147.315 22.436C146.139 23.564 144.759 24.44 143.175 25.064C141.591 25.688 139.899 26 138.099 26H129.387ZM132.663 24.416H136.623C138.591 24.416 140.259 24.092 141.627 23.444C143.019 22.772 144.159 21.908 145.047 20.852C145.935 19.796 146.583 18.62 146.991 17.324C147.399 16.004 147.603 14.696 147.603 13.4C147.603 11.96 147.363 10.58 146.883 9.26C146.403 7.916 145.695 6.74 144.759 5.732C143.847 4.7 142.707 3.884 141.339 3.284C139.971 2.684 138.399 2.384 136.623 2.384H132.663V24.416ZM156.554 0.799998H172.826V2.78H159.83V11.816H170.99V13.472H159.83V24.02H172.826V26H156.554V0.799998Z" fill="#242424"></path></svg>