<svg xmlns="http://www.w3.org/2000/svg" width="172" height="28" viewBox="0 0 172 28" fill="none"><path d="M14.728 27.512C12.744 27.512 10.8933 27.1653 9.176 26.472C7.46933 25.768 5.97067 24.7973 4.68 23.56C3.4 22.312 2.40267 20.856 1.688 19.192C0.973333 17.528 0.616 15.736 0.616 13.816C0.616 11.896 0.973333 10.104 1.688 8.44C2.41333 6.776 3.416 5.32533 4.696 4.088C5.976 2.84 7.46933 1.86933 9.176 1.176C10.8827 0.471999 12.728 0.119999 14.712 0.119999C16.3547 0.119999 17.9013 0.359999 19.352 0.839998C20.8133 1.30933 22.088 1.95467 23.176 2.776L21.704 5.512C20.8293 4.808 19.8053 4.26933 18.632 3.896C17.4587 3.512 16.2213 3.32 14.92 3.32C13.352 3.32 11.912 3.58667 10.6 4.12C9.288 4.65333 8.14667 5.4 7.176 6.36C6.216 7.30933 5.46933 8.424 4.936 9.704C4.41333 10.9733 4.152 12.344 4.152 13.816C4.152 15.288 4.41333 16.664 4.936 17.944C5.46933 19.2133 6.216 20.328 7.176 21.288C8.14667 22.2373 9.288 22.9787 10.6 23.512C11.912 24.0453 13.352 24.312 14.92 24.312C16.2213 24.312 17.4587 24.1253 18.632 23.752C19.8053 23.368 20.8293 22.824 21.704 22.12L23.176 24.856C22.1093 25.656 20.8507 26.3013 19.4 26.792C17.9493 27.272 16.392 27.512 14.728 27.512ZM28.471 27V0.599998H31.719V12.344H44.775V0.599998H48.023V27H44.775V15.192H31.719V27H28.471ZM53.437 27L63.885 0.599998H66.909L77.357 27H73.853L70.925 19.304H59.869L56.925 27H53.437ZM60.973 16.44H69.821L65.389 4.936L60.973 16.44ZM82.7523 27V0.599998H86.0003L99.3443 21.512V0.599998H102.592V27H99.3443L86.0003 6.104V27H82.7523ZM110.784 27V0.599998H124.496V3.464H114.032V12.344H124.112V15.192H114.032V24.136H124.496V27H110.784ZM128.781 27L139.229 0.599998H142.253L152.701 27H149.197L146.269 19.304H135.213L132.269 27H128.781ZM136.317 16.44H145.165L140.733 4.936L136.317 16.44ZM158.096 27V0.599998H161.344V24.136H171.952V27H158.096Z" fill="#242424"></path></svg>