<svg xmlns="http://www.w3.org/2000/svg" width="127" height="30" viewBox="0 0 127 30" fill="none"><path d="M22.48 29H16.92V17.48H6.48V29H0.92V0.52H6.48V12.56H16.92V0.52H22.48V29ZM47.4628 29H37.3828C34.1828 29 31.9295 28.4533 30.6228 27.36C29.3428 26.24 28.7028 24.28 28.7028 21.48V0.52H47.4628V5.48H34.2628V12.16H43.5028L43.1028 17.12H34.2628V21.08C34.2628 22.2 34.5161 22.9733 35.0228 23.4C35.5295 23.8267 36.4495 24.04 37.7828 24.04H47.4628V29ZM71.6816 29H61.6016C58.4016 29 56.1482 28.4533 54.8416 27.36C53.5616 26.24 52.9216 24.28 52.9216 21.48V0.52H71.6816V5.48H58.4816V12.16H67.7216L67.3216 17.12H58.4816V21.08C58.4816 22.2 58.7349 22.9733 59.2416 23.4C59.7482 23.8267 60.6682 24.04 62.0016 24.04H71.6816V29ZM99.3403 0.52V26.12C99.3403 27 99.0736 27.76 98.5403 28.4C98.007 29.0133 97.3803 29.32 96.6603 29.32C94.8203 29.32 93.3136 28.2533 92.1403 26.12L82.3003 10.72V29H76.7403V0.52H82.1003L93.7803 19.16V0.52H99.3403ZM126.709 29H120.909L119.309 24.08H109.749L108.189 29H102.389L111.509 2.92C111.909 2.01333 112.349 1.38666 112.829 1.04C113.336 0.693332 113.949 0.52 114.669 0.52C115.389 0.52 115.962 0.679999 116.389 0.999998C116.842 1.32 117.242 1.96 117.589 2.92L126.709 29ZM118.029 19.4L114.669 8.12L111.149 19.4H118.029Z" fill="#242424"></path></svg>