<svg xmlns="http://www.w3.org/2000/svg" width="165" height="26" viewBox="0 0 165 26" fill="none"><path d="M0.468 25L5.436 0.483998H10.044L15.912 18.412L21.78 0.483998H26.352L31.32 25H26.496L23.292 7.936L17.856 24.964H13.932L8.496 7.936L5.292 25H0.468ZM32.0333 25L42.0053 0.52H45.4973L55.4693 25H50.7173L48.6653 19.492H38.8373L36.7853 25H32.0333ZM40.2053 15.748H47.2973L43.7333 6.208L40.2053 15.748ZM58.0627 25V0.52H62.4907V11.644L70.4107 0.52H76.0987L66.8467 12.76L76.3507 25H70.4107L62.4907 13.876V25H58.0627ZM88.3235 25.324C86.6195 25.324 85.0115 25 83.4995 24.352C81.9875 23.68 80.6435 22.768 79.4675 21.616C78.3155 20.44 77.4035 19.096 76.7315 17.584C76.0595 16.048 75.7235 14.428 75.7235 12.724C75.7235 11.02 76.0595 9.412 76.7315 7.9C77.4035 6.388 78.3155 5.056 79.4675 3.904C80.6435 2.728 81.9875 1.816 83.4995 1.168C85.0115 0.495998 86.6195 0.159998 88.3235 0.159998C90.0515 0.159998 91.6715 0.495998 93.1835 1.168C94.6955 1.816 96.0275 2.728 97.1795 3.904C98.3555 5.056 99.2675 6.388 99.9155 7.9C100.587 9.412 100.923 11.02 100.923 12.724C100.923 14.452 100.587 16.084 99.9155 17.62C99.2435 19.132 98.3195 20.464 97.1435 21.616C95.9915 22.768 94.6595 23.68 93.1475 24.352C91.6355 25 90.0275 25.324 88.3235 25.324ZM88.3235 20.896C89.4275 20.896 90.4595 20.68 91.4195 20.248C92.4035 19.816 93.2675 19.228 94.0115 18.484C94.7795 17.716 95.3795 16.84 95.8115 15.856C96.2675 14.848 96.4955 13.804 96.4955 12.724C96.4955 11.62 96.2675 10.588 95.8115 9.628C95.3795 8.644 94.7795 7.78 94.0115 7.036C93.2675 6.268 92.4035 5.668 91.4195 5.236C90.4355 4.78 89.4035 4.552 88.3235 4.552C87.2435 4.552 86.2115 4.78 85.2275 5.236C84.2435 5.668 83.3675 6.268 82.5995 7.036C81.8555 7.78 81.2675 8.644 80.8355 9.628C80.4035 10.588 80.1875 11.62 80.1875 12.724C80.1875 13.804 80.4035 14.848 80.8355 15.856C81.2675 16.84 81.8555 17.716 82.5995 18.484C83.3675 19.228 84.2435 19.816 85.2275 20.248C86.2115 20.68 87.2435 20.896 88.3235 20.896ZM111.125 24.964L101.045 0.52H105.833L113.573 20.68H112.169L119.945 0.52H124.733L114.653 24.964H111.125ZM127.32 25V0.52H142.332V4.552H131.748V10.708H141.972V14.776H131.748V20.968H142.332V25H127.32ZM146.797 25V0.52H156.013C157.381 0.52 158.653 0.843999 159.829 1.492C161.005 2.14 161.953 3.052 162.673 4.228C163.393 5.38 163.753 6.712 163.753 8.224C163.753 9.592 163.477 10.804 162.925 11.86C162.397 12.892 161.665 13.744 160.729 14.416C159.793 15.064 158.737 15.508 157.561 15.748L164.437 25H159.325L152.737 15.928H151.225V25H146.797ZM151.225 12.292H155.545C156.217 12.292 156.841 12.124 157.417 11.788C157.993 11.452 158.449 10.972 158.785 10.348C159.145 9.724 159.325 9.004 159.325 8.188C159.325 7.372 159.145 6.664 158.785 6.064C158.449 5.464 157.993 4.996 157.417 4.66C156.865 4.324 156.241 4.156 155.545 4.156H151.225V12.292Z" fill="#242424"></path></svg>