<svg xmlns="http://www.w3.org/2000/svg" width="140" height="37" viewBox="0 0 140 37" fill="none"><path d="M18.96 24.84C18.96 27.6933 18.72 29.7733 18.24 31.08C17.6267 32.7867 16.7733 34.0267 15.68 34.8C14.2133 35.8667 12.4 36.4 10.24 36.4C8.10667 36.4 6.30667 36.12 4.84 35.56C3.37333 35.0267 2.25333 34.4267 1.48 33.76L2.24 32.64C2.82667 33.1467 3.68 33.6267 4.8 34.08C5.94667 34.56 7.21333 34.8 8.6 34.8C11.2133 34.8 12.92 34.1067 13.72 32.72C14.5467 31.36 14.96 29.0533 14.96 25.8V25.4C13.9467 27.4 12.24 28.4 9.84 28.4C6.96 28.4 4.66667 27.4133 2.96 25.44C1.25333 23.44 0.4 20.9333 0.4 17.92V10.52C0.4 7.48 1.25333 4.97333 2.96 3C4.66667 0.999999 6.96 -1.90735e-06 9.84 -1.90735e-06C12.08 -1.90735e-06 14.0533 0.706665 15.76 2.12C17.4667 3.53333 18.32 5.49333 18.32 8V8.56H14.96L14.92 7.6C14.84 5.70667 14.3867 4.2 13.56 3.08C12.7333 1.96 11.48 1.4 9.8 1.4C8.14667 1.4 6.88 1.97333 6 3.12C5.14667 4.24 4.72 5.73333 4.72 7.6V20.76C4.72 22.6533 5.14667 24.1733 6 25.32C6.85333 26.44 8.13333 27 9.84 27C13.04 27 14.7333 24.92 14.92 20.76L14.96 19.92H18.96V24.84ZM35.2534 28H23.5734V0.399998H27.8934V26.12H35.2534V28ZM56.8228 28H52.4628V23.6C52.1161 24.7467 51.3828 25.84 50.2628 26.88C49.1695 27.8933 47.8228 28.4 46.2228 28.4C43.6628 28.4 41.6095 27.5067 40.0628 25.72C38.5428 23.9067 37.7828 21.3733 37.7828 18.12V10.16C37.7828 6.88 38.6228 4.37333 40.3028 2.64C42.0095 0.879999 44.0095 -1.90735e-06 46.3028 -1.90735e-06C47.2628 -1.90735e-06 48.1295 0.199998 48.9028 0.599998C49.7028 0.999999 50.3428 1.49333 50.8228 2.08C51.5961 3.06667 52.1428 4.04 52.4628 5V0.399998H56.8228V28ZM52.4228 18.92V9.28C52.4228 7.30666 51.9028 5.50666 50.8628 3.88C49.8228 2.22667 48.4361 1.4 46.7028 1.4C45.7161 1.4 44.8761 1.65333 44.1828 2.16C43.5161 2.66667 43.0495 3.33333 42.7828 4.16C42.3295 5.52 42.1028 6.84 42.1028 8.12V20.12C42.1028 22.4667 42.5428 24.2 43.4228 25.32C44.3028 26.44 45.5428 27 47.1428 27C48.7428 27 50.0228 26.2 50.9828 24.6C51.9428 22.9733 52.4228 21.08 52.4228 18.92ZM93.3206 28H88.9206V7.44C88.9206 5.30667 88.6273 3.77333 88.0406 2.84C87.4806 1.88 86.574 1.4 85.3206 1.4C84.094 1.4 82.9073 2.09333 81.7606 3.48C80.614 4.84 80.0406 6.82667 80.0406 9.44V28H75.6806V7.44C75.6806 5.30667 75.3873 3.77333 74.8006 2.84C74.214 1.88 73.3073 1.4 72.0806 1.4C70.854 1.4 69.654 2.09333 68.4806 3.48C67.334 4.86666 66.7606 6.85333 66.7606 9.44V28H62.4406V0.399998H66.7606V4.88C68.094 1.62667 70.214 -1.90735e-06 73.1206 -1.90735e-06C76.5606 -1.90735e-06 78.7606 1.96 79.7206 5.88C80.2006 4.14667 80.9873 2.73333 82.0806 1.64C83.2006 0.546665 84.6406 -1.90735e-06 86.4006 -1.90735e-06C88.5606 -1.90735e-06 90.254 0.813331 91.4806 2.44C92.7073 4.06667 93.3206 6.34667 93.3206 9.28V28ZM117.174 17.6C117.174 20.9067 116.361 23.5333 114.734 25.48C113.108 27.4267 110.748 28.4 107.654 28.4C104.561 28.4 102.201 27.4267 100.574 25.48C98.9477 23.5333 98.1344 20.9067 98.1344 17.6V10.84C98.1344 7.50667 98.9477 4.86667 100.574 2.92C102.201 0.973332 104.561 -1.90735e-06 107.654 -1.90735e-06C110.748 -1.90735e-06 113.108 0.986665 114.734 2.96C116.361 4.90667 117.174 7.53333 117.174 10.84V17.6ZM112.774 20.72V7.68C112.774 5.81333 112.334 4.30667 111.454 3.16C110.601 1.98667 109.321 1.4 107.614 1.4C105.934 1.4 104.654 1.98667 103.774 3.16C102.921 4.30667 102.494 5.81333 102.494 7.68V20.72C102.494 22.6133 102.921 24.1333 103.774 25.28C104.654 26.4267 105.934 27 107.614 27C109.321 27 110.601 26.4267 111.454 25.28C112.334 24.1333 112.774 22.6133 112.774 20.72ZM139.963 28H135.643V21.24C135.643 17.08 133.736 15 129.923 15C129.523 15 129.176 15.0133 128.883 15.04V14.04C130.376 14.04 131.776 13.6267 133.083 12.8C133.776 12.3467 134.336 11.6667 134.763 10.76C135.189 9.82667 135.403 8.72 135.403 7.44C135.403 5.41333 134.869 3.96 133.803 3.08C132.763 2.17333 131.123 1.72 128.883 1.72H126.683V28H122.363V0.399998H130.163C136.403 0.399998 139.523 2.77333 139.523 7.52C139.523 10.8267 137.376 13.1333 133.083 14.44C137.669 15.3733 139.963 18.0933 139.963 22.6V28Z" fill="#242424"></path></svg>