<svg xmlns="http://www.w3.org/2000/svg" width="173" height="30" viewBox="0 0 173 30" fill="none"><path d="M14.36 29.64C11.72 29.64 9.37333 29.0267 7.32 27.8C5.29333 26.5467 3.69333 24.8267 2.52 22.64C1.37333 20.4533 0.8 17.9467 0.8 15.12C0.8 12.96 1.13333 10.9867 1.8 9.2C2.46667 7.38667 3.4 5.82667 4.6 4.52C5.8 3.18666 7.22667 2.16 8.88 1.44C10.5333 0.719999 12.36 0.359999 14.36 0.359999C16.36 0.359999 18.1867 0.719999 19.84 1.44C21.52 2.13333 22.96 3.12 24.16 4.4C25.3867 5.68 26.3333 7.2 27 8.96C27.6667 10.6933 28 12.6133 28 14.72C28 16.9067 27.6667 18.9067 27 20.72C26.3333 22.5333 25.3867 24.1067 24.16 25.44C22.96 26.7733 21.52 27.8133 19.84 28.56C18.1867 29.28 16.36 29.64 14.36 29.64ZM15.28 28C17.9733 28 20.04 27.1067 21.48 25.32C22.92 23.5067 23.64 20.92 23.64 17.56C23.64 12.5467 22.76 8.70667 21 6.04C19.24 3.34667 16.72 2 13.44 2C10.7733 2 8.72 2.90667 7.28 4.72C5.86667 6.50667 5.16 9.06667 5.16 12.4C5.16 17.4133 6.02667 21.2667 7.76 23.96C9.52 26.6533 12.0267 28 15.28 28ZM30.1013 29V28.2L34.4213 26.76L33.7413 27.72V2.28L34.4213 3.24L30.1013 1.8V0.999998H42.1013C43.8879 0.999998 45.4613 1.29333 46.8213 1.88C48.2079 2.46667 49.2879 3.28 50.0613 4.32C50.8346 5.36 51.2213 6.56 51.2213 7.92C51.2213 9.25333 50.9546 10.4933 50.4213 11.64C49.9146 12.76 49.1946 13.72 48.2613 14.52C47.3279 15.32 46.2213 15.9333 44.9413 16.36L45.0213 15.6L51.7413 25.36C52.1146 25.92 52.5013 26.3733 52.9013 26.72C53.3013 27.0667 53.8213 27.36 54.4613 27.6L56.2213 28.24V29H49.3413L41.3013 16.36L42.3813 17H36.8213L37.5413 16.28V27.72L36.8613 26.8L41.7013 28.2V29H30.1013ZM37.5413 16.12L36.8213 15.4H42.1013C43.4879 15.4 44.6213 14.8267 45.5013 13.68C46.3813 12.5067 46.8213 11.0133 46.8213 9.2C46.8213 7.38667 46.2613 5.90667 45.1413 4.76C44.0479 3.58667 42.6346 3 40.9013 3H36.8213L37.5413 2.28V16.12ZM56.5466 29V28.2L60.8666 26.76L59.9466 27.68L69.5466 0.999998L73.3466 0.199999L83.1066 27.68L82.0666 26.76L86.5066 28.24V29H75.1466V28.2L79.4666 26.76L79.0266 27.68L75.7066 18.68L76.6666 19.36H64.5466L65.5066 18.68L62.1466 27.68L61.7066 26.76L66.1466 28.24V29H56.5466ZM65.6266 18.44L65.1466 17.76H76.0666L75.5866 18.44L70.3866 3.28H70.8666L65.6266 18.44ZM113.973 30L92.0925 4.16L92.5725 4V27.72L91.8925 26.76L96.3325 28.24V29H87.1325V28.2L91.4525 26.76L90.7725 27.72V2.28L91.4525 3.24L87.1325 1.8V0.999998H94.6525L112.573 22.32L112.173 22.48V2.28L112.853 3.24L108.533 1.8V0.999998H117.733V1.76L113.293 3.24L113.973 2.28V28.96V30ZM134.463 29.6C132.329 29.6 130.369 29.2533 128.583 28.56C126.796 27.84 125.249 26.84 123.942 25.56C122.636 24.2533 121.623 22.72 120.903 20.96C120.209 19.1733 119.863 17.2267 119.863 15.12C119.863 12.9867 120.209 11.0267 120.903 9.24C121.623 7.45333 122.636 5.90667 123.942 4.6C125.249 3.26667 126.796 2.24 128.583 1.52C130.369 0.799998 132.329 0.426665 134.463 0.399999C135.396 0.399999 136.409 0.519999 137.503 0.759999C138.623 0.973333 139.743 1.28 140.863 1.68C141.983 2.08 143.009 2.54667 143.943 3.08V9H142.423C142.423 7.61333 142.049 6.4 141.303 5.36C140.556 4.29333 139.516 3.46666 138.183 2.88C136.876 2.26666 135.369 1.96 133.663 1.96C131.823 1.96 130.183 2.41333 128.743 3.32C127.329 4.2 126.223 5.42667 125.423 7C124.623 8.54667 124.223 10.3467 124.223 12.4C124.223 15.44 124.689 18.1467 125.623 20.52C126.556 22.8667 127.849 24.7067 129.503 26.04C131.183 27.3733 133.103 28.04 135.263 28.04C136.463 28.04 137.623 27.7733 138.743 27.24C139.863 26.7067 140.836 25.9867 141.663 25.08L141.343 26.16V18.28L142.063 19.16L136.103 17.8V17H147.703V17.76L144.503 19.32L145.143 18.28V26.84C144.209 27.3733 143.129 27.8533 141.903 28.28C140.676 28.68 139.409 29 138.103 29.24C136.823 29.48 135.609 29.6 134.463 29.6ZM149.828 29V28.2L154.148 26.76L153.468 27.72V2.28L154.148 3.24L149.828 1.8V0.999998H171.188V8.2H170.348L168.708 2.32L169.628 3H156.548L157.268 2.28V14.48L156.548 13.76H165.028L164.108 14.44L165.508 10H166.308V19.2H165.548L164.068 14.68L165.028 15.36H156.548L157.268 14.64V27.72L156.548 27H169.428L168.388 27.64L171.948 20.84L172.708 21.12L171.308 29H149.828Z" fill="#242424"></path></svg>