<svg xmlns="http://www.w3.org/2000/svg" width="143" height="161" viewBox="0 0 143 161" fill="none"><path d="M38.7383 134.32L38.6683 133.64L26.7583 9.95L97.3983 9.44L96.8783 15.83L95.3883 15.71L95.7683 10.95L28.4083 11.43L40.0983 132.81L85.8283 132.48L88.1883 103.63L89.6783 103.75L87.2083 133.97L38.7383 134.32Z" fill="#848967"></path><path d="M45.9783 153.41L42.0783 132.79L83.8383 132.49L80.2483 153.16L70.7083 153.23L70.5783 152.64C70.1083 150.56 68.8683 149 66.8983 147.99C64.4983 146.77 61.6383 146.79 59.2483 148.04C57.2883 149.07 56.0683 150.65 55.6183 152.74L55.4883 153.33L45.9683 153.4L45.9783 153.41ZM43.8883 134.28L47.2183 151.9L54.3083 151.85C54.9483 149.62 56.4083 147.85 58.5583 146.73C61.3783 145.25 64.7483 145.23 67.5883 146.67C69.7483 147.77 71.2283 149.51 71.8983 151.73L78.9983 151.68L82.0683 134.01L43.8983 134.28H43.8883Z" fill="#848967"></path><path d="M47.3183 160.49L45.6983 151.91L54.3083 151.85C54.9483 149.62 56.4083 147.85 58.5583 146.73C61.3783 145.25 64.7483 145.23 67.5883 146.67C69.7483 147.77 71.2283 149.51 71.8983 151.73L80.5183 151.67L79.0283 160.27L47.3283 160.5L47.3183 160.49ZM47.5083 153.4L48.5583 158.98L77.7583 158.77L78.7283 153.17L70.7183 153.23L70.5883 152.64C70.1183 150.56 68.8783 149 66.9083 147.99C64.5083 146.77 61.6483 146.79 59.2583 148.04C57.2983 149.07 56.0783 150.65 55.6283 152.74L55.4983 153.33L47.4983 153.39L47.5083 153.4Z" fill="#848967"></path><path d="M27.0683 11.44L22.8583 0.56L101.168 0L97.1083 10.94L27.0683 11.44ZM25.0383 2.05L28.0983 9.94L96.0583 9.45L98.9983 1.52L25.0283 2.05H25.0383Z" fill="#848967"></path><path d="M70.6096 42.304L30.7208 42.6173L30.7326 44.1173L70.6214 43.804L70.6096 42.304Z" fill="#848967"></path><path d="M85.5599 97.9254L36.081 98.2449L36.0906 99.7449L85.5696 99.4253L85.5599 97.9254Z" fill="#848967"></path><path d="M74.3783 93.04L74.2883 92.14C74.3283 78.83 82.2183 65.63 93.9083 59.3C99.8283 56.09 106.488 54.55 112.928 53.05C114.798 52.62 116.658 52.19 118.508 51.72C125.138 50.02 134.598 46.95 140.168 39.89L142.468 36.97L141.478 40.56C138.458 51.48 135.278 62.04 129.588 71.29C123.038 81.92 113.958 89.09 104.018 91.47C98.7183 92.73 93.1983 92.62 87.8683 92.52C83.6683 92.44 79.3283 92.35 75.1483 92.94L74.3783 93.05V93.04ZM139.178 43.22C133.288 48.95 124.938 51.63 118.878 53.17C117.018 53.64 115.148 54.08 113.268 54.51C106.928 55.98 100.358 57.5 94.6183 60.61C83.6283 66.56 76.1483 78.83 75.7983 91.33C79.8183 90.84 83.9183 90.92 87.8983 91C93.1383 91.1 98.5483 91.21 103.668 89.99C113.218 87.7 121.978 80.78 128.308 70.48C133.368 62.26 136.418 52.92 139.168 43.21L139.178 43.22Z" fill="#848967"></path><path d="M71.8083 85.68L71.5883 84.96C68.3383 74.58 67.3983 64.56 68.7683 55.18C70.3483 44.53 75.0783 34.92 82.1083 28.13C89.7583 20.72 100.228 16.8 110.118 17.63L112.648 17.84L110.408 19.03C106.408 21.16 105.438 26.44 105.198 28.61C105.028 30.16 104.988 31.77 104.958 33.33C104.898 35.76 104.848 38.28 104.298 40.73C103.098 46.09 99.6883 51.05 93.5783 56.35C92.0283 57.7 90.3883 59.01 88.8083 60.28C85.5883 62.86 82.2583 65.52 79.5183 68.64C75.1183 73.65 72.9783 79.41 73.6383 84.45L73.7183 85.08L71.8083 85.68ZM107.458 19.02C98.7683 19.02 89.8383 22.73 83.1483 29.21C76.3583 35.77 71.7783 45.08 70.2483 55.4C69.0483 63.58 69.6583 72.27 72.0683 81.28C72.4383 76.73 74.6383 71.92 78.3783 67.65C81.2083 64.43 84.5883 61.73 87.8583 59.11C89.4283 57.85 91.0483 56.55 92.5783 55.22C98.4383 50.14 101.688 45.44 102.818 40.41C103.328 38.11 103.388 35.67 103.438 33.31C103.478 31.72 103.508 30.08 103.688 28.46C104.128 24.39 105.608 21.08 107.848 19.02C107.708 19.02 107.578 19.02 107.438 19.02H107.458Z" fill="#848967"></path><path d="M79.5283 88.85L79.1383 87.4C98.5883 82.17 116.768 71.1 130.348 56.23L131.458 57.24C117.698 72.32 99.2483 83.55 79.5383 88.85H79.5283Z" fill="#848967"></path><path d="M73.3083 70.12L71.8383 69.81C75.1383 54.41 83.1983 39.9 94.5483 28.98L95.5883 30.06C84.4483 40.78 76.5383 55.01 73.3083 70.13V70.12Z" fill="#848967"></path><path d="M82.2183 45.46L82.7583 33.21L84.2483 33.28L83.8183 43.24L94.4683 39.14L95.0083 40.54L82.2183 45.46Z" fill="#848967"></path><path d="M75.7883 58.46L75.0283 44.73L76.5283 44.65L77.1483 55.92L87.2983 49.98L88.0583 51.28L75.7883 58.46Z" fill="#848967"></path><path d="M110.258 74.4L115.058 59.04L116.498 59.49L112.368 72.7L125.408 71.52L125.548 73.01L110.258 74.4Z" fill="#848967"></path><path d="M108.778 86.09L90.9683 84.48L98.2783 66.58L99.6683 67.15L93.1283 83.17L108.918 84.6L108.778 86.09Z" fill="#848967"></path><path d="M32.3583 127.61C17.6683 118.99 7.03827 105.19 2.43827 88.76C-2.16173 72.29 -0.211728 54.93 7.93827 39.89C11.5383 33.25 16.1783 27.35 21.7483 22.35L22.7483 23.47C17.3083 28.36 12.7683 34.12 9.25827 40.61C-7.28173 71.13 3.19827 108.78 33.1183 126.33L32.3583 127.62V127.61Z" fill="#848967"></path><path d="M91.0583 131.47L90.4783 130.09C103.988 124.39 114.838 114.55 121.838 101.62C125.958 94.02 128.468 85.84 129.288 77.31L130.778 77.45C129.928 86.18 127.368 94.55 123.148 102.33C115.978 115.55 104.878 125.63 91.0483 131.46L91.0583 131.47Z" fill="#848967"></path><path d="M124.508 46.13C121.018 37.88 115.958 30.6 109.458 24.49L110.488 23.4C117.138 29.65 122.318 37.1 125.888 45.55L124.508 46.13Z" fill="#848967"></path><path d="M10.0183 91.8L8.69827 91.09C8.73827 91.02 12.3483 84.13 8.25827 76.38L7.72827 75.38L8.84827 75.28C17.5683 74.48 21.3783 67.69 21.4083 67.63L22.7283 68.34C22.6883 68.41 19.0783 75.3 23.1683 83.04L23.6983 84.03L22.5783 84.13C13.8583 84.93 10.0483 91.72 10.0183 91.79V91.8ZM10.0683 76.65C12.0483 80.96 11.9483 84.92 11.3983 87.7C13.4283 85.72 16.6883 83.47 21.3883 82.78C19.4083 78.47 19.5083 74.51 20.0583 71.73C18.0283 73.71 14.7683 75.96 10.0683 76.65Z" fill="#848967"></path><path d="M94.7283 146.78L93.4083 146.07C93.4383 146.01 96.4583 140.24 93.0383 133.76L92.5083 132.76L93.6283 132.66C100.958 131.99 104.118 126.32 104.148 126.26L105.468 126.97C105.438 127.03 102.418 132.8 105.838 139.28L106.368 140.27L105.248 140.37C97.9483 141.04 94.7583 146.72 94.7283 146.77V146.78ZM94.8283 134.02C96.3683 137.46 96.3583 140.62 95.9583 142.93C97.6783 141.33 100.318 139.6 104.038 139.01C102.498 135.57 102.508 132.41 102.908 130.1C101.188 131.7 98.5483 133.43 94.8283 134.02Z" fill="#848967"></path><path d="M18.2483 66.32C17.7183 66.32 17.1883 66.19 16.7083 65.93C15.9483 65.52 15.3983 64.84 15.1483 64.01C14.8983 63.18 14.9883 62.31 15.4083 61.55C15.8183 60.79 16.4983 60.24 17.3283 59.99C18.1583 59.74 19.0283 59.83 19.7883 60.25C21.3583 61.1 21.9383 63.07 21.0883 64.64C20.6783 65.4 19.9983 65.95 19.1683 66.2C18.8683 66.29 18.5483 66.34 18.2383 66.34L18.2483 66.32ZM18.2583 61.35C17.6383 61.35 17.0383 61.68 16.7283 62.26C16.5083 62.67 16.4583 63.14 16.5883 63.58C16.7183 64.02 17.0183 64.39 17.4283 64.61C17.8383 64.83 18.3083 64.88 18.7483 64.75C19.1883 64.62 19.5583 64.32 19.7783 63.91C20.2383 63.07 19.9183 62.01 19.0783 61.55C18.8183 61.41 18.5283 61.34 18.2483 61.34L18.2583 61.35Z" fill="#848967"></path><path d="M10.2583 70.54C9.87827 70.54 9.50827 70.45 9.16827 70.26C8.05827 69.66 7.63827 68.26 8.24827 67.15C8.53827 66.61 9.02827 66.22 9.61827 66.04C10.2083 65.87 10.8283 65.93 11.3683 66.22C11.9083 66.51 12.2983 67 12.4783 67.59C12.6483 68.18 12.5883 68.8 12.2983 69.34C12.0083 69.88 11.5183 70.27 10.9383 70.45C10.7183 70.51 10.4983 70.55 10.2783 70.55L10.2583 70.54ZM10.2683 67.44C9.98827 67.44 9.70827 67.59 9.56827 67.86C9.46827 68.05 9.44827 68.26 9.50827 68.47C9.56827 68.67 9.70827 68.84 9.88827 68.94C10.0783 69.04 10.2883 69.06 10.4983 69C10.6983 68.94 10.8683 68.8 10.9683 68.62C11.0683 68.43 11.0883 68.22 11.0283 68.01C10.9683 67.81 10.8283 67.64 10.6483 67.54C10.5283 67.47 10.3983 67.44 10.2683 67.44Z" fill="#848967"></path><path d="M10.8883 63.16C10.5183 63.16 10.1383 63.07 9.79827 62.88C8.67827 62.27 8.26827 60.88 8.86827 59.76C9.15827 59.22 9.64827 58.83 10.2383 58.65C10.8283 58.48 11.4483 58.54 11.9883 58.83C13.1083 59.44 13.5183 60.84 12.9183 61.95C12.4983 62.72 11.7083 63.15 10.8883 63.15V63.16ZM10.8883 60.05C10.8083 60.05 10.7383 60.06 10.6583 60.08C10.4583 60.14 10.2883 60.28 10.1783 60.47C9.96827 60.86 10.1083 61.35 10.4983 61.56C10.8883 61.77 11.3783 61.63 11.5883 61.24C11.7983 60.85 11.6483 60.36 11.2683 60.15C11.1483 60.09 11.0183 60.05 10.8883 60.05Z" fill="#848967"></path><path d="M96.7183 160.44C96.0183 160.44 95.3183 160.27 94.6883 159.92C93.6883 159.38 92.9483 158.47 92.6283 157.38C92.2983 156.29 92.4283 155.13 92.9683 154.13C93.5083 153.13 94.4183 152.39 95.5083 152.07C96.6083 151.74 97.7583 151.87 98.7583 152.41C99.7583 152.95 100.498 153.86 100.818 154.95C101.148 156.04 101.018 157.2 100.478 158.2C99.9383 159.2 99.0283 159.94 97.9383 160.26C97.5383 160.38 97.1283 160.44 96.7183 160.44ZM96.7283 153.38C96.4683 153.38 96.1983 153.42 95.9383 153.5C95.2283 153.71 94.6383 154.19 94.2883 154.84C93.9383 155.49 93.8583 156.24 94.0683 156.95C94.2783 157.66 94.7583 158.24 95.4083 158.6C96.0583 158.95 96.8083 159.03 97.5183 158.82C98.2283 158.61 98.8183 158.13 99.1683 157.48C99.8983 156.14 99.3983 154.45 98.0483 153.72C97.6383 153.5 97.1883 153.38 96.7283 153.38Z" fill="#848967"></path><path d="M103.598 151.01C103.188 151.01 102.788 150.91 102.418 150.71C101.838 150.39 101.408 149.87 101.218 149.23C101.028 148.59 101.098 147.92 101.418 147.33C101.738 146.74 102.258 146.32 102.898 146.13C103.538 145.94 104.208 146.01 104.798 146.33C105.388 146.65 105.808 147.17 105.998 147.81C106.188 148.45 106.118 149.12 105.798 149.7C105.478 150.28 104.958 150.71 104.318 150.9C104.088 150.97 103.848 151 103.608 151L103.598 151.01ZM103.608 147.53C103.518 147.53 103.418 147.54 103.328 147.57C103.078 147.65 102.868 147.82 102.738 148.05C102.608 148.28 102.588 148.55 102.658 148.8C102.738 149.05 102.898 149.26 103.138 149.39C103.368 149.51 103.638 149.54 103.888 149.47C104.138 149.39 104.348 149.23 104.478 148.99C104.608 148.76 104.628 148.49 104.558 148.24C104.478 147.99 104.308 147.78 104.078 147.65C103.928 147.57 103.768 147.53 103.608 147.53Z" fill="#848967"></path><path d="M89.4583 154.05C88.9483 154.05 88.4383 153.92 87.9683 153.67C86.4483 152.85 85.8883 150.95 86.7083 149.43C87.1083 148.7 87.7683 148.16 88.5683 147.92C89.3683 147.68 90.2183 147.77 90.9483 148.17C92.4683 148.99 93.0283 150.89 92.2083 152.41C91.8083 153.14 91.1483 153.68 90.3483 153.92C90.0583 154.01 89.7483 154.05 89.4583 154.05ZM89.4583 149.29C89.2983 149.29 89.1483 149.31 88.9883 149.36C88.5683 149.48 88.2283 149.76 88.0183 150.15C87.5883 150.94 87.8883 151.93 88.6783 152.36C89.0583 152.57 89.4983 152.61 89.9183 152.49C90.3383 152.37 90.6783 152.09 90.8883 151.7C91.0983 151.32 91.1383 150.88 91.0183 150.46C90.8983 150.04 90.6183 149.7 90.2283 149.49C89.9883 149.36 89.7183 149.29 89.4583 149.29Z" fill="#848967"></path><path d="M37.5379 48.2476L36.0426 48.3658L39.4328 91.252L40.9282 91.1338L37.5379 48.2476Z" fill="#848967"></path></svg>