<svg viewBox="0 0 18 12" xmlns="http://www.w3.org/2000/svg" width="18" height="12"><path d="m18 0h-18v12h18z" fill="#039"/><path d="m9.26 2.07.4-.29h-.5l-.15-.47-.15.47h-.5l.4.29-.15.47.4-.29.4.29zm0 8.21.4-.29h-.5l-.15-.47-.15.47h-.5l.4.29-.15.47.4-.29.4.29zm-4.11-4.1.4-.29h-.5l-.15-.47-.15.47h-.5l.4.29-.15.47.4-.29.4.29zm.52-2.03.4-.29h-.5l-.15-.47-.15.47h-.5l.4.29-.15.47.4-.29.4.29zm0 4.08.4-.29h-.5l-.15-.47-.15.47h-.5l.4.29-.15.47.4-.29.4.29zm1.53-5.61.4-.29h-.5l-.15-.47-.15.47h-.5l.4.29-.15.47.4-.29.4.29zm0 7.14.4-.29h-.5l-.15-.47-.15.47h-.5l.4.29-.15.47.4-.29.4.29zm5.65-3.58-.4-.29h.5l.15-.47.15.47h.5l-.4.29.15.47-.4-.29-.4.29zm-.52-2.03-.4-.29h.5l.15-.47.15.47h.5l-.4.29.15.47-.4-.29-.4.29zm0 4.08-.4-.29h.5l.15-.47.15.47h.5l-.4.29.15.47-.4-.29-.4.29zm-1.53-5.61-.4-.29h.5l.15-.47.15.47h.5l-.4.29.15.47-.4-.29-.4.29zm0 7.14-.4-.29h.5l.15-.47.15.47h.5l-.4.29.15.47-.4-.29-.4.29z" fill="#fc0"/></svg>
